<svg width="37" height="44" viewBox="0 0 37 44" fill="none" xmlns="http://www.w3.org/2000/svg">
<path d="M11.2942 23.6473V6.14732C11.2942 5.32827 11.6196 4.54276 12.1987 3.96361C12.7779 3.38445 13.5634 3.05908 14.3824 3.05908C15.2015 3.05908 15.987 3.38445 16.5661 3.96361C17.1453 4.54276 17.4707 5.32827 17.4707 6.14732V21.5885M17.4707 20.5591V16.4414C17.4707 15.6224 17.796 14.8369 18.3752 14.2577C18.9543 13.6786 19.7398 13.3532 20.5589 13.3532C21.3779 13.3532 22.1635 13.6786 22.7426 14.2577C23.3218 14.8369 23.6471 15.6224 23.6471 16.4414V21.5885M23.6471 18.5003C23.6471 17.6812 23.9725 16.8957 24.5517 16.3165C25.1308 15.7374 25.9163 15.412 26.7354 15.412C27.5544 15.412 28.3399 15.7374 28.9191 16.3165C29.4982 16.8957 29.8236 17.6812 29.8236 18.5003V21.5885" stroke="white" stroke-width="2" stroke-linecap="round" stroke-linejoin="round"/>
<path d="M29.8235 20.5588C29.8235 19.7398 30.1489 18.9543 30.7281 18.3751C31.3072 17.796 32.0927 17.4706 32.9118 17.4706C33.7308 17.4706 34.5163 17.796 35.0955 18.3751C35.6746 18.9543 36 19.7398 36 20.5588V29.8235C36 33.0997 34.6985 36.2418 32.3819 38.5584C30.0653 40.875 26.9233 42.1765 23.6471 42.1765H19.5294H19.9576C17.9119 42.1768 15.898 41.6691 14.097 40.6988C12.2959 39.7286 10.764 38.3262 9.63882 36.6176L9.23529 36C8.59294 35.0145 6.33784 31.0835 2.47 24.2071C2.07563 23.5061 1.97029 22.6789 2.17637 21.9015C2.38246 21.1241 2.88372 20.4577 3.57353 20.0441C4.30859 19.6043 5.16934 19.4222 6.01954 19.5266C6.86974 19.631 7.66084 20.016 8.26765 20.6206L11.2941 23.6471M5.11765 3.05882L3.05882 1M3.05882 11.2941H1M23.6471 3.05882L25.7059 1M25.7059 9.23529H27.7647" stroke="white" stroke-width="2" stroke-linecap="round" stroke-linejoin="round"/>
</svg>
